# xmcd
#
# Track frame offsets: 
#        150
#        13800
#        30400
#        42377
#        55020
#        67045
#        78780
#        96740
#        112067
#        127222
#        141267
#        156172
#        167050
#        185972
#        201407
#        217580
#        231032
#        249605
#        262297
#        274215
#        288817
#        299977
#        310370
#        322870
#
# Disc length: 4437 seconds
#
# Revision: 1
# Processed by: cddbd v1.5.2PL0 Copyright (c) Steve Scherf et al.
# Submitted via: ExactAudioCopy v1.0b3
#
DISCID=7f115318
DTITLE=Kenny Rogers and The First Edition - The Best of Kenny Rogers and T
DTITLE=he First Edition
DYEAR=1999
DGENRE=Country
TTITLE0=Ruby Don't Take Your Love to Town
TTITLE1=Tulsa Turnaround
TTITLE2=Elvira
TTITLE3=Reuben James
TTITLE4=Me and Bobby McGee
TTITLE5=Calico Silver
TTITLE6=Something's Burning
TTITLE7=Tell it All Brother
TTITLE8=Just Dropped In (To See What Condition My Condition Was In)
TTITLE9=But You Know I Love You
TTITLE10=Heed the Call
TTITLE11=She Even Woke Me Up to Say Goodbye
TTITLE12=The King of Oak Street
TTITLE13=For the Good Times
TTITLE14=Mommas Waiting
TTITLE15=Sleep Comes Easy
TTITLE16=I Believe in Music
TTITLE17=Love Woman
TTITLE18=A Poem for my little lady
TTITLE19=Sunshine
TTITLE20=Last Few Threads of Love
TTITLE21=Where Does Rosie Go?
TTITLE22=What am I Gonna Do?
TTITLE23=Write Me Down (Don't Forget My Name)
EXTD=
EXTT0=
EXTT1=
EXTT2=
EXTT3=
EXTT4=
EXTT5=
EXTT6=
EXTT7=
EXTT8=
EXTT9=
EXTT10=
EXTT11=
EXTT12=
EXTT13=
EXTT14=
EXTT15=
EXTT16=
EXTT17=
EXTT18=
EXTT19=
EXTT20=
EXTT21=
EXTT22=
EXTT23=
PLAYORDER=
